<svg id="facebook-outline" xmlns="http://www.w3.org/2000/svg" xmlns:xlink="http://www.w3.org/1999/xlink" width="18.571" height="28.569" viewBox="0 0 18.571 28.569">
  <defs>
    <clipPath id="clip-path">
      <path id="_Icon_小olor" data-name=" Icon 小olor" d="M11.428,28.569H5.713a1.43,1.43,0,0,1-1.428-1.428V18.284H1.428A1.43,1.43,0,0,1,0,16.856V11.713a1.43,1.43,0,0,1,1.428-1.428H4.285V7.857C4.285,3.524,8.13,0,12.856,0h4.285a1.43,1.43,0,0,1,1.428,1.428V6.571A1.43,1.43,0,0,1,17.141,8H12.856v2.286h4.285a1.438,1.438,0,0,1,1.138.564,1.42,1.42,0,0,1,.239,1.247L17.09,17.238a1.432,1.432,0,0,1-1.377,1.047H12.856v8.857A1.43,1.43,0,0,1,11.428,28.569ZM2.857,13.142v2.286H5.713a1.431,1.431,0,0,1,1.43,1.428v8.857H10V16.856a1.43,1.43,0,0,1,1.428-1.428h3.2l.635-2.286H11.428A1.43,1.43,0,0,1,10,11.713V7.857a2.791,2.791,0,0,1,2.857-2.714h2.857V2.857H12.856c-3.15,0-5.713,2.243-5.713,5v3.857a1.431,1.431,0,0,1-1.43,1.428Z" transform="translate(0 0)" fill="#fff"/>
    </clipPath>
  </defs>
  <path id="_Icon_小olor-2" data-name=" Icon 小olor" d="M11.428,28.569H5.713a1.43,1.43,0,0,1-1.428-1.428V18.284H1.428A1.43,1.43,0,0,1,0,16.856V11.713a1.43,1.43,0,0,1,1.428-1.428H4.285V7.857C4.285,3.524,8.13,0,12.856,0h4.285a1.43,1.43,0,0,1,1.428,1.428V6.571A1.43,1.43,0,0,1,17.141,8H12.856v2.286h4.285a1.438,1.438,0,0,1,1.138.564,1.42,1.42,0,0,1,.239,1.247L17.09,17.238a1.432,1.432,0,0,1-1.377,1.047H12.856v8.857A1.43,1.43,0,0,1,11.428,28.569ZM2.857,13.142v2.286H5.713a1.431,1.431,0,0,1,1.43,1.428v8.857H10V16.856a1.43,1.43,0,0,1,1.428-1.428h3.2l.635-2.286H11.428A1.43,1.43,0,0,1,10,11.713V7.857a2.791,2.791,0,0,1,2.857-2.714h2.857V2.857H12.856c-3.15,0-5.713,2.243-5.713,5v3.857a1.431,1.431,0,0,1-1.43,1.428Z" transform="translate(0 0)" fill="#fff"/>
</svg>
